<svg width="53" height="53" viewBox="0 0 53 53" fill="none" xmlns="http://www.w3.org/2000/svg">
<path d="M38.6533 0H14.3466C6.43575 0 0 6.43575 0 14.3466V38.6537C0 46.5642 6.43575 52.9999 14.3466 52.9999H38.6537C46.5642 52.9999 52.9999 46.5642 52.9999 38.6537V14.3466C52.9999 6.43575 46.5642 0 38.6533 0V0ZM49.8928 38.6537C49.8928 44.8509 44.8509 49.8928 38.6533 49.8928H14.3466C8.14901 49.8928 3.10708 44.8509 3.10708 38.6537V14.3466C3.10708 8.14901 8.14901 3.10708 14.3466 3.10708H38.6537C44.8509 3.10708 49.8928 8.14901 49.8928 14.3466V38.6537Z" fill="white"/>
<path d="M26.4999 12.0083C18.509 12.0083 12.0082 18.5092 12.0082 26.5001C12.0082 34.491 18.509 40.9918 26.4999 40.9918C34.4908 40.9918 40.9917 34.491 40.9917 26.5001C40.9917 18.5092 34.4908 12.0083 26.4999 12.0083ZM26.4999 37.8847C20.2227 37.8847 15.1153 32.7777 15.1153 26.5001C15.1153 20.2228 20.2227 15.1154 26.4999 15.1154C32.7776 15.1154 37.8846 20.2228 37.8846 26.5001C37.8846 32.7777 32.7776 37.8847 26.4999 37.8847Z" fill="white"/>
<path d="M41.3383 6.86133C38.9768 6.86133 37.0562 8.78243 37.0562 11.1435C37.0562 13.5049 38.9768 15.426 41.3383 15.426C43.6997 15.426 45.6208 13.5049 45.6208 11.1435C45.6208 8.78202 43.6997 6.86133 41.3383 6.86133ZM41.3383 12.3185C40.6905 12.3185 40.1632 11.7913 40.1632 11.1435C40.1632 10.4953 40.6905 9.96841 41.3383 9.96841C41.9865 9.96841 42.5138 10.4953 42.5138 11.1435C42.5138 11.7913 41.9865 12.3185 41.3383 12.3185Z" fill="white"/>
</svg>
