<svg width="62" height="62" viewBox="0 0 62 62" fill="none" xmlns="http://www.w3.org/2000/svg">
<g clip-path="url(#clip0)">
<path d="M61.0426 6.15875C60.2853 5.23257 59.151 4.72266 57.8483 4.72266C57.1401 4.72266 56.3899 4.87166 55.6189 5.16635L3.13706 25.2003C0.351904 26.2632 -0.0232028 27.8582 0.000921283 28.7144C0.0250454 29.5705 0.490026 31.1419 3.331 32.0459C3.34803 32.0511 3.36506 32.0563 3.38209 32.061L14.2682 35.1763L20.1555 52.0112C20.9582 54.3063 22.7599 55.732 24.8583 55.732C26.1813 55.732 27.4826 55.1776 28.6216 54.1294L35.3551 47.9295L45.1216 55.7935C45.1225 55.7944 45.124 55.7949 45.1249 55.7958L45.2176 55.8706C45.2261 55.8772 45.2351 55.8843 45.2436 55.8909C46.3292 56.7329 47.5141 57.1775 48.6716 57.178H48.6721C50.9336 57.178 52.7344 55.504 53.259 52.9137L61.8581 10.4533C62.2034 8.74902 61.9139 7.224 61.0426 6.15875ZM17.91 34.5846L38.9127 23.855L25.835 37.751C25.6208 37.9785 25.4689 38.2571 25.3942 38.5603L22.8725 48.7748L17.91 34.5846ZM26.1605 51.4568C26.0734 51.5367 25.9859 51.6082 25.8984 51.6739L28.238 42.1983L32.4938 45.6254L26.1605 51.4568ZM58.2976 9.73196L49.6986 52.1928C49.6158 52.5992 49.3514 53.5447 48.6716 53.5447C48.3358 53.5447 47.9138 53.3617 47.482 53.0291L36.4151 44.1183C36.4137 44.1169 36.4118 44.1155 36.4099 44.1145L29.825 38.812L48.7369 18.7166C49.3424 18.0732 49.3972 17.0879 48.867 16.3812C48.3362 15.6745 47.3746 15.4522 46.588 15.8543L15.4829 31.745L4.44875 28.5881L56.9145 8.56029C57.3577 8.39095 57.6671 8.35547 57.8483 8.35547C57.9594 8.35547 58.1571 8.36871 58.2305 8.45906C58.327 8.57684 58.4499 8.97844 58.2976 9.73196Z" fill="white"/>
</g>
<defs>
<clipPath id="clip0">
<rect width="62" height="62" fill="white"/>
</clipPath>
</defs>
</svg>
