<svg width="58" height="58" viewBox="0 0 58 58" fill="none" xmlns="http://www.w3.org/2000/svg">
<path fill-rule="evenodd" clip-rule="evenodd" d="M48.234 9.68621C43.147 4.5932 36.3816 1.78717 29.1742 1.78418C14.3227 1.78418 2.23565 13.8709 2.22967 28.7264C2.22768 33.4753 3.46824 38.1109 5.82624 42.197L2.00366 56.1592L16.2874 52.4123C20.2231 54.5592 24.654 55.6906 29.1633 55.6919H29.1746C44.0245 55.6919 56.1128 43.6042 56.1185 28.748C56.1214 21.5482 53.3214 14.7789 48.234 9.68621ZM29.1742 51.1415H29.1649C25.1466 51.1398 21.2055 50.0599 17.7666 48.0198L16.9492 47.5343L8.47297 49.7579L10.7354 41.4938L10.2027 40.6465C7.96088 37.0808 6.77707 32.9595 6.77906 28.7281C6.78371 16.3805 16.8303 6.3349 29.1832 6.3349C35.165 6.33689 40.788 8.66933 45.0161 12.9024C49.2443 17.1356 51.5714 22.7622 51.5694 28.7463C51.5641 41.0949 41.5181 51.1415 29.1742 51.1415ZM41.4584 34.3687C40.7853 34.0315 37.4752 32.4033 36.8579 32.1783C36.2413 31.9536 35.7919 31.8418 35.3435 32.5155C34.8945 33.1892 33.6045 34.7059 33.2115 35.1549C32.8186 35.6043 32.4263 35.6607 31.7529 35.3235C31.0795 34.9866 28.9104 34.2754 26.3387 31.9818C24.3374 30.1966 22.9864 27.992 22.5934 27.3183C22.2011 26.6439 22.5901 26.3147 22.8888 25.9443C23.6176 25.0392 24.3474 24.0904 24.5717 23.6414C24.7964 23.192 24.6839 22.7987 24.5153 22.4619C24.3474 22.125 23.001 18.8112 22.4401 17.4628C21.8931 16.1505 21.3386 16.3278 20.9251 16.3072C20.5328 16.2876 20.0837 16.2836 19.6347 16.2836C19.186 16.2836 18.4565 16.4519 17.8392 17.1263C17.2223 17.8003 15.4832 19.4288 15.4832 22.7426C15.4832 26.0565 17.8957 29.2578 18.2322 29.7071C18.5687 30.1565 22.9797 36.9567 29.7331 39.8726C31.3394 40.5668 32.5932 40.9807 33.5713 41.291C35.1842 41.8034 36.6515 41.7311 37.8117 41.5578C39.1054 41.3644 41.7946 39.929 42.3561 38.3565C42.917 36.7838 42.917 35.436 42.7484 35.1549C42.5805 34.8741 42.1314 34.7059 41.4584 34.3687Z" fill="white"/>
</svg>
